<svg id="Layer_1" enable-background="new 0 0 511.992 511.992" height="512" viewBox="0 0 511.992 511.992" width="512" xmlns="http://www.w3.org/2000/svg"><g><g fill="#79cb9c"><path d="m143.782 63.995-24 72-17.25-17.25c-70.46 68.91-83.41 179.22-28.8 262.96l11.45 17.55c4.877 7.498 2.658 17.36-4.66 22.14-7.434 4.845-17.325 2.712-22.14-4.66l-11.45-17.55c-62.92-96.49-48.09-223.57 32.96-303.08l-16.11-16.11c86.605-17.326 73.111-14.628 80-16z"/><path d="m493.932 340.305-9.48 18.69c-52.1 102.73-169.57 153.43-278.95 122.99l-5.9 22.01c-47.287-53.81-36.11-41.094-53.86-61.28l74.36-15.22-6.32 23.57c94.91 26.56 196.92-17.38 242.13-106.54 9.664-19.053 10.233-21.668 14.81-24.72 7.684-5.189 18.152-2.759 22.79 5.25 2.61 4.52 2.95 10.24.42 15.25z"/><path d="m503.942 182.535c-25.547 75.525-23.235 68.684-26.14 77.29l-50.36-56.79 23.57-6.31c-24.45-95.48-113.51-161.85-213.33-156.42l-20.93 1.14c-8.757.475-16.355-6.23-16.84-15.11-.493-8.824 6.283-16.352 15.1-16.84l20.93-1.14c115.02-6.25 217.66 70.13 245.99 180.08z"/></g><path d="m138.912 64.965 4.87-.97-24 72-17.25-17.25c-70.46 68.91-83.41 179.22-28.8 262.96 12.216 18.724 12.403 18.658 13.29 21.4-90.631-103.944-66.72-265.333 51.89-338.14z" fill="#63ac7d"/><path d="m470.722 319.805c-39.275 132.423-188.118 197.405-311.43 138.32l-13.55-15.41 74.36-15.22-6.32 23.57c94.91 26.56 196.92-17.38 242.13-106.54 9.664-19.053 10.233-21.668 14.81-24.72z" fill="#63ac7d"/><path d="m479.922 253.545-2.12 6.28-50.36-56.79 23.57-6.31c-24.45-95.48-113.51-161.85-213.33-156.42l-20.93 1.14c-4.24.23-8.18-1.21-11.19-3.76 139.489-32.051 272.845 73.002 274.36 215.86z" fill="#63ac7d"/><path d="m223.942 95.995h64v32h-64z" fill="#7acef9"/><path d="m255.942 95.995h32v32h-32z" fill="#6cb9e7"/><path d="m319.942 208.565v159.43c0 11.05-8.95 20-20 20-11.04 0-20-8.96-20-20 0 11.05-8.95 20-20 20h-8c-11.05 0-20-8.95-20-20 0 11.05-8.95 20-20 20-11.04 0-20-8.96-20-20v-159.43c0-10.61 4.21-20.78 11.72-28.29l22.42-22.42c3.75-3.75 5.86-8.84 5.86-14.14v-15.72h48v15.72c0 5.3 2.11 10.39 5.86 14.14l22.42 22.42c7.51 7.51 11.72 17.68 11.72 28.29z" fill="#edebfd"/><path d="m319.942 208.565v159.43c0 16.591-18.963 25.768-32 16 4.86-3.65 8-9.46 8-16v-159.43c0-10.61-4.21-20.78-11.72-28.29l-22.42-22.42c-3.75-3.75-5.86-8.84-5.86-14.14v-15.72h24v15.72c0 5.3 2.11 10.39 5.86 14.14l22.42 22.42c7.51 7.51 11.72 17.68 11.72 28.29z" fill="#d2d2fc"/><path d="m191.942 231.995h128v64h-128z" fill="#7acef9"/><path d="m295.942 231.995h24v64h-24z" fill="#6cb9e7"/><path d="m142.213 56.15-80 16c-6.252 1.25-8.603 8.987-4.088 13.501l10.491 10.492c-79.142 82.863-91.375 210.816-28.385 307.413l11.453 17.554c11.696 17.905 39.198 12.65 43.582-8.173 1.321-6.274.119-12.686-3.384-18.053l-11.449-17.549c-50.647-77.663-41.045-180.343 22.146-247.228l11.545 11.545c4.187 4.189 11.363 2.525 13.246-3.127l24-72c1.95-5.848-3.17-11.576-9.157-10.375zm-25.928 65.035-8.097-8.097c-3.099-3.1-8.116-3.127-11.25-.063-73.579 71.961-86.157 186.794-29.906 273.05l11.451 17.552c2.42 3.708 1.364 8.655-2.329 11.065-3.725 2.428-8.665 1.354-11.071-2.329l-11.449-17.549c-60.315-92.495-46.916-215.719 31.861-293 3.169-3.109 3.204-8.218.054-11.368l-5.54-5.54 51.824-10.365z"/><path d="m490.508 311.661c-11.83-5.993-26.259-1.282-32.255 10.554l-9.473 18.69c-41.936 82.694-135.659 125.72-225.18 104.434l4.226-15.771c1.533-5.723-3.493-11.101-9.332-9.908l-74.354 15.215c-5.993 1.226-8.468 8.495-4.405 13.119l53.856 61.282c4.206 4.784 12.083 2.959 13.737-3.21l3.84-14.332c110.96 27.016 228.094-25.95 280.419-129.125l9.476-18.695c6.015-11.879 1.222-26.278-10.555-32.253zm-3.716 25.024-9.473 18.689c-49.946 98.482-163.36 148.49-269.675 118.908-4.287-1.196-8.722 1.346-9.872 5.636l-2.028 7.568-34.889-39.699 48.167-9.856-2.964 11.061c-1.134 4.234 1.35 8.593 5.571 9.775 99.332 27.802 204.957-18.999 251.422-110.625l9.475-18.693c2-3.95 6.813-5.508 10.747-3.515 3.968 2.01 5.504 6.828 3.519 10.751z"/><path d="m501.872 174.812-14.332 3.84c-32.191-109.971-136.882-184.522-252.035-178.289l-20.928 1.142c-13.298.732-23.367 12.083-22.654 25.269.725 13.247 12.023 23.377 25.268 22.657l20.922-1.141c92.565-5.033 176.704 54.626 203.033 142.794l-15.771 4.226c-5.733 1.537-7.86 8.587-3.916 13.035l50.354 56.785c4.066 4.587 11.596 3.072 13.564-2.744l26.144-77.282c2.043-6.042-3.48-11.94-9.649-10.292zm-27.234 69.387-32.62-36.785 11.061-2.963c4.234-1.135 6.767-5.465 5.68-9.712-25.53-99.702-118.684-168.01-221.516-162.426l-20.925 1.141c-2.134.118-4.182-.604-5.771-2.03-5.284-4.739-2.216-13.552 4.905-13.943l20.922-1.141c110.271-5.98 210.276 67.229 237.814 174.092 1.109 4.305 5.524 6.883 9.817 5.731l7.568-2.028z"/><path d="m231.942 387.572c5.086 5.195 12.173 8.423 20 8.423h8c7.823 0 14.907-3.225 19.993-8.416 17.479 17.848 48.007 5.426 48.007-19.584 0-35.771 0-127.681 0-159.43 0-12.822-4.994-24.878-14.063-33.947l-22.42-22.42c-4.289-4.289-3.517-8.639-3.517-16.203 4.418 0 8-3.582 8-8v-32c0-4.418-3.582-8-8-8h-64c-4.418 0-8 3.582-8 8v32c0 4.418 3.582 8 8 8v7.72c0 3.156-1.282 6.248-3.517 8.483l-22.42 22.42c-9.069 9.068-14.063 21.125-14.063 33.947v159.43c0 25.022 30.519 37.432 48 19.577zm68-7.577c-6.627 0-12-5.373-12-12 0-4.418-3.582-8-8-8s-8 3.582-8 8c0 6.617-5.383 12-12 12h-8c-6.617 0-12-5.383-12-12 0-4.418-3.582-8-8-8s-8 3.582-8 8c0 6.617-5.383 12-12 12-6.627 0-12-5.373-12-12v-32h8c4.418 0 8-3.582 8-8s-3.582-8-8-8h-8v-16h112v16h-8c-4.418 0-8 3.582-8 8s3.582 8 8 8h8v32c0 6.616-5.383 12-12 12zm-100-140h112v48h-112zm32-136h48v16h-48zm-22.624 81.937 22.42-22.42c5.213-5.213 8.203-12.429 8.203-19.796v-7.72h32v7.72c0 7.368 2.99 14.583 8.203 19.796l22.42 22.42c6.046 6.047 9.376 14.084 9.376 22.633v15.43h-112v-15.43c.002-8.549 3.332-16.586 9.378-22.633z"/></g></svg>